<?xml version="1.0" encoding="utf-8"?><!-- Uploaded to: SVG Repo, www.svgrepo.com, Generator: SVG Repo Mixer Tools -->
<svg width="800px" height="800px" viewBox="-1.17 0 94.013 94.013" xmlns="http://www.w3.org/2000/svg">
  <path id="Path_34" data-name="Path 34" d="M1025.443,769.025a2,2,0,0,0-3.652,1.63l5.772,12.938a2,2,0,0,0,3.654-1.629Zm18.41,17.588a13.4,13.4,0,0,0-1.769-1.58,1.991,1.991,0,0,0-.551-.839,6.941,6.941,0,0,1-1.531-1.96,4.916,4.916,0,0,0,1.342.2h.054a5.25,5.25,0,0,0,3.641-1.666l.049-.049.049-.056.756-.871a2,2,0,0,0-3.018-2.621s0,0-.7.8c-.514.475-.7.443-.834.462a.7.7,0,0,1-.285-.069l-.008.011-.043-.033-1.67-1.207a12.4,12.4,0,0,1,.314-1.5c.112-.4.221-.717.3-.928s.112-.275.109-.277a2,2,0,0,0-.656-2.441l-18.863-13.629c-.021-.015-.045-.023-.066-.038L986.111,733.5l-.82-5.088A2,2,0,0,0,983,726.759l-5.088.819-.137-.1a3.987,3.987,0,0,0-2.32-.783,2.956,2.956,0,0,0-2.443,1.2l-3.559,4.926a2.832,2.832,0,0,0-.531,1.669,3.747,3.747,0,0,0,1.637,2.973l43.109,31.14a21.136,21.136,0,0,0-2.08,8.245,6.8,6.8,0,0,0,2.6,5.884l.173.127a7.513,7.513,0,0,0-2.877,2.386l-.287.4a7.479,7.479,0,0,0-1.425,4.411,7.559,7.559,0,0,0,3.127,6.137l5.212,3.767a7.538,7.538,0,0,0,4.415,1.422h.013a7.551,7.551,0,0,0,6.121-3.122l-1.619-1.17,1.621,1.17.289-.4a7.519,7.519,0,0,0,1.35-3.463l1.717,1.241a4.255,4.255,0,0,1,.179,1.272,10.058,10.058,0,0,1-1.787,5.187c-1.678,2.755-2.847,4.591-3.591,5.73s-1.049,1.552-1.049,1.556a2.007,2.007,0,0,0,.449,2.794l11.289,8.153a2,2,0,0,0,2.633-.257c.164-.177,3.939-4.277,5.5-12.016a38.117,38.117,0,0,0,.621-7.3,75.562,75.562,0,0,0-.887-11.036A6.479,6.479,0,0,0,1043.853,786.613Zm-70.64-52.164,2.529-3.5,41.176,29.747c-.336.819-.867,2.108-1.688,4.109Zm52.488,61.074-.285.4h0a3.584,3.584,0,0,1-4.969.8l-5.207-3.768a3.548,3.548,0,0,1-1.47-2.893,3.488,3.488,0,0,1,.666-2.066l.291-.406a3.556,3.556,0,0,1,2.892-1.466,3.5,3.5,0,0,1,2.068.668l3.3,2.385-.591.652a3.192,3.192,0,0,1-1.981.724,4.563,4.563,0,0,1-2.8-1.145,2,2,0,1,0-2.447,3.162,8.566,8.566,0,0,0,5.215,1.984h.033a7.04,7.04,0,0,0,4.854-1.939l.037-.039.677-.749a3.627,3.627,0,0,1,.389,1.623A3.541,3.541,0,0,1,1025.7,795.523Zm-6.5-14.074-2.7-1.968-.039-.03c-.129-.154-.83-.441-.881-2.6a17.571,17.571,0,0,1,1.8-6.789c1.412-3.434,2.3-5.6,2.865-6.968l15.6,11.271a15.918,15.918,0,0,0-.64,4.357,11.211,11.211,0,0,0,2.394,7.132c-.013.018-.025.036-.039.053l-2.99,4.136-1.193,1.653Zm22.51,25.822a26.1,26.1,0,0,1-1.826,5.688,1.99,1.99,0,0,0-.809-1.391l-4.73-3.421a2,2,0,0,0-2.344,3.246l4.73,3.417a1.968,1.968,0,0,0,2.149.115c-.221.384-.434.723-.627,1.016l-8.129-5.874c.773-1.179,1.974-3.062,3.691-5.882a13.993,13.993,0,0,0,2.373-7.274,8.239,8.239,0,0,0-.226-1.955l1.855-2.569,2.576-3.569c.184.173.375.361.586.58a1.937,1.937,0,0,1,.319.6c.05.137.088.265.109.349a.526.526,0,0,0,.023.09c.006.042.2,1.238.4,3.1a68.959,68.959,0,0,1,.418,7.227A34.084,34.084,0,0,1,1041.715,807.271ZM978.3,768.014a2,2,0,0,0-2.643,1.011l-5.771,12.939a2,2,0,1,0,3.652,1.629l5.773-12.938A2,2,0,0,0,978.3,768.014Zm29.125-24.111,17.933-12.956,2.532,3.5-15.038,10.864a2,2,0,0,0,2.344,3.245l15.348-11.091a3.76,3.76,0,0,0,1.637-2.974,2.836,2.836,0,0,0-.532-1.668l-3.566-4.939a2.961,2.961,0,0,0-2.436-1.19,3.985,3.985,0,0,0-2.32.785l-.135.1-5.088-.819a2,2,0,0,0-2.292,1.656l-.819,5.087-9.91,7.159a2,2,0,1,0,2.342,3.242Zm-14.194,15.6-7.357,5.3c-.824-2-1.354-3.292-1.69-4.111l5.088-3.675a2,2,0,0,0-2.341-3.243l-6.3,4.551c-.024.016-.049.025-.071.04L961.7,771.995a2,2,0,0,0-.656,2.439s.033.067.111.276a12.761,12.761,0,0,1,.612,2.432l-1.694,1.222-.015.015-.012-.009a.7.7,0,0,1-.285.069c-.131-.019-.319.013-.832-.461l-.7-.8a2,2,0,0,0-3.019,2.626l.756.868.043.052.052.051a5.256,5.256,0,0,0,3.643,1.668h.055a4.909,4.909,0,0,0,1.342-.2,6.9,6.9,0,0,1-1.53,1.961,2.015,2.015,0,0,0-.551.838,13.692,13.692,0,0,0-1.777,1.585,6.389,6.389,0,0,0-1.5,3.061,74.777,74.777,0,0,0-.9,11.085,37.741,37.741,0,0,0,.623,7.3c1.56,7.737,5.336,11.837,5.5,12.014a2,2,0,0,0,2.633.257l11.289-8.153a2.007,2.007,0,0,0,.451-2.794s-.3-.417-1.049-1.556-1.914-2.975-3.588-5.722a10.039,10.039,0,0,1-1.791-5.193,4.116,4.116,0,0,1,.18-1.275L970.8,794.4a7.487,7.487,0,0,0,1.355,3.463l.285.4,1.625-1.17-1.623,1.17a7.555,7.555,0,0,0,6.123,3.122h.014a7.524,7.524,0,0,0,4.408-1.42l5.219-3.769a7.565,7.565,0,0,0,1.7-10.55l-.285-.4a7.53,7.53,0,0,0-2.879-2.388l.211-.153a6.8,6.8,0,0,0,2.561-5.857,21.169,21.169,0,0,0-2.077-8.245l8.131-5.853a2,2,0,0,0-2.338-3.246Zm-22.259,50.558-8.129,5.874c-.19-.288-.4-.635-.617-1.01a1.964,1.964,0,0,0,2.138-.12l4.733-3.419a2,2,0,1,0-2.344-3.241l-4.733,3.418a2,2,0,0,0-.806,1.387,26.045,26.045,0,0,1-1.826-5.684,34,34,0,0,1-.545-6.507,68.837,68.837,0,0,1,.418-7.226c.193-1.777.384-2.948.412-3.125,0-.01.008-.031.017-.066a2.754,2.754,0,0,1,.42-.942c.215-.222.408-.412.592-.586l2.576,3.567,1.858,2.571a8.24,8.24,0,0,0-.227,1.956,13.931,13.931,0,0,0,2.381,7.281C969,807.008,970.2,808.889,970.973,810.066Zm-3.258-18.372-1.194-1.65-2.99-4.14-.037-.049a11.212,11.212,0,0,0,2.391-7.134,15.88,15.88,0,0,0-.639-4.357l15.6-11.269c.56,1.362,1.447,3.517,2.847,6.923a17.787,17.787,0,0,1,1.825,6.834c-.055,2.159-.754,2.444-.889,2.6l-2.733,2Zm19.619-1.635a3.554,3.554,0,0,1-1.467,2.893l-5.213,3.768a3.574,3.574,0,0,1-4.965-.8h0l-.289-.4a3.536,3.536,0,0,1-.672-2.073,3.629,3.629,0,0,1,.391-1.625l.684.755.033.032a7.03,7.03,0,0,0,4.849,1.939h.036a8.577,8.577,0,0,0,5.216-1.984,2,2,0,1,0-2.445-3.162,4.584,4.584,0,0,1-2.807,1.145,3.074,3.074,0,0,1-1.519-.409,3.268,3.268,0,0,1-.41-.276c-.024-.018-.041-.034-.057-.046l-.584-.645,3.3-2.383a3.49,3.49,0,0,1,2.07-.67,3.559,3.559,0,0,1,2.9,1.469l.287.4A3.512,3.512,0,0,1,987.334,790.059Z" transform="translate(-954.719 -726.696)" fill="#3b3859"/>
</svg>